<?xml version="1.0" encoding="iso-8859-1"?>
<!-- Generator: Adobe Illustrator 17.0.0, SVG Export Plug-In . SVG Version: 6.00 Build 0)  -->
<!DOCTYPE svg PUBLIC "-//W3C//DTD SVG 1.1//EN" "http://www.w3.org/Graphics/SVG/1.1/DTD/svg11.dtd">
<svg version="1.1" id="Capa_1" xmlns="http://www.w3.org/2000/svg" xmlns:xlink="http://www.w3.org/1999/xlink" x="0px" y="0px"
	 width="64px" height="64px" viewBox="0 0 64 64" style="enable-background:new 0 0 64 64;" xml:space="preserve">
<g>
	<path d="M9.426,31.887c0,3.799,0.954,7.375,2.633,10.503l17.616-10.17L11.796,21.897C10.284,24.902,9.426,28.293,9.426,31.887z
		 M15.003,37.383c-0.56,0.265-1.153,0.435-1.752,0.585c-0.266,0.067-0.984,0.189-1.091-0.209c-0.105-0.393,0.575-0.661,0.84-0.727
		c0.433-0.109,0.843-0.223,1.248-0.414c0.323-0.153,0.984-0.288,1.276,0.009C15.835,36.943,15.213,37.283,15.003,37.383z
		 M22.641,30.489c0.835,0,1.512,0.676,1.512,1.511c0,0.835-0.677,1.511-1.512,1.511c-0.834,0-1.511-0.676-1.511-1.511
		C21.129,31.165,21.806,30.489,22.641,30.489z M18.47,32.759c0,1.255-1.017,2.271-2.272,2.271c-1.254,0-2.272-1.017-2.272-2.271
		s1.017-2.271,2.272-2.271C17.453,30.488,18.47,31.504,18.47,32.759z M13.926,24.919c0.835,0,1.512,0.676,1.512,1.511
		c0,0.835-0.677,1.511-1.512,1.511c-0.834,0-1.511-0.676-1.511-1.511C12.415,25.596,13.091,24.919,13.926,24.919z M11.104,31.47
		c-1.297,0,0.173-0.94,0.793-0.94C13.194,30.53,11.724,31.47,11.104,31.47z"/>
	<path d="M30.676,8.538v-4C21.258,4.878,13.04,9.995,8.377,17.537l3.466,2.001C15.81,13.19,22.735,8.874,30.676,8.538z"/>
	<path d="M53.51,16.539l3.466-2.001c-4.662-7.543-12.881-12.66-22.299-13v4C42.617,5.874,49.542,10.19,53.51,16.539z"/>
	<path d="M54.735,46.612l-3.466-2.001c-4.003,6.143-10.81,10.296-18.593,10.625v4C41.937,58.901,50.034,53.947,54.735,46.612z"/>
	<path d="M52.495,21.28c1.63,3.186,2.556,6.789,2.556,10.607c0,3.977-1.001,7.723-2.76,11.004l3.467,2.002
		c2.099-3.871,3.292-8.302,3.292-13.006c0-4.545-1.12-8.832-3.089-12.609L52.495,21.28z"/>
	<path d="M11.061,42.891c-1.758-3.282-2.759-7.028-2.759-11.004c0-3.818,0.926-7.421,2.556-10.608l-3.467-2.002
		c-1.969,3.777-3.089,8.064-3.089,12.609c0,4.704,1.193,9.135,3.292,13.005L11.061,42.891z"/>
	<path d="M30.676,59.236v-4c-7.783-0.33-14.59-4.482-18.593-10.625l-3.466,2.001C13.318,53.947,21.416,58.901,30.676,59.236z"/>
	<path d="M30.676,9.663c-7.562,0.334-14.141,4.443-17.902,10.489l17.902,10.336V9.663z M19.646,20.771
		c-1.254,0-2.271-1.017-2.271-2.271c0-1.255,1.017-2.272,2.271-2.272c1.255,0,2.272,1.017,2.272,2.272
		C21.919,19.755,20.901,20.771,19.646,20.771z M26.424,24.919c-0.834,0-1.511-0.676-1.511-1.511c0-0.835,0.677-1.511,1.511-1.511
		c0.835,0,1.512,0.676,1.512,1.511C27.935,24.243,27.259,24.919,26.424,24.919z M26.364,19.295c-0.288-0.356-0.614-0.54-1.051-0.659
		c-0.438-0.12-0.525-0.585-0.243-0.905c0.331-0.375,0.896-0.495,1.366-0.366c0.679,0.186,1.256,0.542,1.699,1.091
		C28.742,19.206,26.9,19.958,26.364,19.295z M27.125,15.707c-0.834,0-1.511-0.676-1.511-1.511s0.677-1.511,1.511-1.511
		c0.835,0,1.512,0.676,1.512,1.511S27.96,15.707,27.125,15.707z"/>
	<path d="M53.926,31.887c0-3.594-0.857-6.985-2.37-9.99L33.677,32.22l17.616,10.171C52.972,39.262,53.926,35.686,53.926,31.887z
		 M50.906,25.44c1.292,0-0.236,0.871-0.812,0.871C48.803,26.31,50.331,25.44,50.906,25.44z M41.472,33.655
		c-0.834,0-1.511-0.676-1.511-1.511c0-0.835,0.677-1.511,1.511-1.511c0.835,0,1.512,0.676,1.512,1.511
		C42.983,32.979,42.307,33.655,41.472,33.655z M45.627,30.61c0.944,0-0.856,0.779-1.255,0.779
		C43.428,31.39,45.229,30.61,45.627,30.61z M44.757,35.579c-1.307,0-0.027-1.157,0.735-1.157
		C46.8,34.421,45.519,35.579,44.757,35.579z M48.739,39.368c-0.835,0-1.511-0.676-1.511-1.511c0-0.835,0.677-1.511,1.511-1.511
		c0.835,0,1.512,0.676,1.512,1.511C50.251,38.692,49.574,39.368,48.739,39.368z M49.5,33.396c-1.254,0-2.271-1.017-2.271-2.271
		c0-1.255,1.017-2.272,2.271-2.272c1.255,0,2.272,1.017,2.272,2.272C51.771,32.38,50.754,33.396,49.5,33.396z"/>
	<path d="M30.676,54.112v-20.16L13.085,44.108C16.893,49.888,23.319,53.786,30.676,54.112z M27.487,52.501
		c-1.302,0,0.115-1.003,0.776-1.003C29.565,51.498,28.148,52.501,27.487,52.501z M27.125,39.368c0.835,0,1.512,0.676,1.512,1.511
		c0,0.835-0.677,1.511-1.512,1.511c-0.834,0-1.511-0.676-1.511-1.511C25.614,40.044,26.291,39.368,27.125,39.368z M23.238,42.904
		c1.308,0,0.06,1.192-0.726,1.192C21.205,44.096,22.452,42.904,23.238,42.904z M24.152,44.893c1.255,0,2.272,1.017,2.272,2.272
		c0,1.255-1.017,2.271-2.272,2.271c-1.254,0-2.271-1.017-2.271-2.271C21.881,45.91,22.898,44.893,24.152,44.893z M17.709,43.151
		c0.835,0,1.512,0.676,1.512,1.511c0,0.835-0.677,1.511-1.512,1.511c-0.834,0-1.511-0.676-1.511-1.511
		C16.198,43.828,16.875,43.151,17.709,43.151z"/>
	<path d="M50.267,44.108L32.676,33.952v20.16C40.034,53.786,46.46,49.888,50.267,44.108z M35.926,50.947
		c-0.834,0-1.511-0.676-1.511-1.511c0-0.835,0.677-1.511,1.511-1.511c0.835,0,1.512,0.676,1.512,1.511
		C37.438,50.271,36.761,50.947,35.926,50.947z M36.948,44.663c-1.254,0-2.272-1.017-2.272-2.271c0-1.255,1.017-2.272,2.272-2.272
		c1.255,0,2.272,1.017,2.272,2.272C39.22,43.646,38.203,44.663,36.948,44.663z M39.246,48.01c-0.94,0,0.865-0.77,1.258-0.77
		C41.443,47.24,39.639,48.01,39.246,48.01z M44.956,46.404c-0.835,0-1.511-0.676-1.511-1.511c0-0.835,0.677-1.511,1.511-1.511
		c0.835,0,1.512,0.676,1.512,1.511C46.468,45.727,45.791,46.404,44.956,46.404z"/>
	<path d="M34.676,6.663v20.825l17.902-10.336C48.817,11.106,42.239,6.997,34.676,6.663z M40.47,9.663
		c0.835,0,1.512,0.676,1.512,1.511c0,0.835-0.677,1.511-1.512,1.511c-0.834,0-1.511-0.676-1.511-1.511
		C38.958,10.339,39.635,9.663,40.47,9.663z M37.23,8.249c1.307,0,0.115,1.252-0.71,1.252C35.213,9.501,36.405,8.249,37.23,8.249z
		 M38.198,22.347c-1.254,0-2.272-1.017-2.272-2.271s1.017-2.271,2.272-2.271c1.255,0,2.272,1.017,2.272,2.271
		S39.453,22.347,38.198,22.347z M40.526,15.606c-0.381,0.301-0.977,0.383-1.39,0.1c-0.427-0.293-0.962-0.365-1.46-0.463
		c-0.418-0.083-0.81-0.411-0.606-0.877c0.192-0.44,0.793-0.699,1.253-0.608c0.802,0.159,1.604,0.316,2.29,0.787
		C41.021,14.824,40.855,15.347,40.526,15.606z M41.775,19.143c-1.307,0-0.146-1.285,0.7-1.285
		C43.782,17.857,42.621,19.143,41.775,19.143z M44.956,17.043c-0.835,0-1.511-0.676-1.511-1.511c0-0.835,0.677-1.511,1.511-1.511
		c0.835,0,1.512,0.676,1.512,1.511C46.468,16.367,45.791,17.043,44.956,17.043z M47.621,16.386c-0.94,0,0.864-0.771,1.258-0.771
		C49.819,15.614,48.015,16.386,47.621,16.386z"/>
</g>
</svg>
